<svg xmlns="http://www.w3.org/2000/svg" viewBox="0 0 512 512"><path fill="#fae17c" d="M404.609 74.86l-6.366-17.902c-2.274-6.396 2.583-13.082 9.369-12.895l18.993.523a9.667 9.667 0 0 0 6.158-2l15.058-11.587c5.38-4.14 13.24-1.586 15.159 4.926l5.373 18.224a9.663 9.663 0 0 0 3.806 5.238l15.673 10.741c5.6 3.838 5.6 12.102 0 15.939l-15.673 10.741a9.664 9.664 0 0 0-3.806 5.238l-5.373 18.224c-1.92 6.511-9.779 9.065-15.159 4.926l-15.058-11.587a9.657 9.657 0 0 0-6.158-2l-18.993.523c-6.786.187-11.643-6.499-9.369-12.895l6.366-17.902a9.67 9.67 0 0 0 0-6.475z"/><path fill="#ff85b6" d="M29.96 286.424l-17.159-8.157c-6.131-2.915-7.424-11.077-2.494-15.743l13.799-13.06a9.659 9.659 0 0 0 2.939-5.769l2.455-18.84c.877-6.732 8.241-10.484 14.202-7.236l16.685 9.088a9.662 9.662 0 0 0 6.395 1.012l18.677-3.487c6.674-1.246 12.516 4.597 11.271 11.271l-3.487 18.677a9.662 9.662 0 0 0 1.012 6.395l9.088 16.685c3.247 5.961-.504 13.325-7.236 14.202l-18.84 2.455a9.67 9.67 0 0 0-5.769 2.939l-13.06 13.799c-4.666 4.931-12.828 3.637-15.743-2.493l-8.157-17.159a9.66 9.66 0 0 0-4.578-4.579z"/><path fill="#a3e3ff" d="M456.803 387.885l-15.793 4.483c-5.643 1.601-11.135-2.962-10.592-8.803l1.519-16.347a8.35 8.35 0 0 0-1.379-5.422l-9.143-13.636c-3.267-4.872-.623-11.505 5.1-12.794l16.016-3.607a8.348 8.348 0 0 0 4.73-2.987l10.143-12.91c3.624-4.613 10.749-4.148 13.743.897l8.381 14.118a8.343 8.343 0 0 0 4.302 3.576l15.412 5.657c5.507 2.021 7.266 8.942 3.395 13.348L491.8 365.791a8.346 8.346 0 0 0-2.071 5.197l-.618 16.405c-.221 5.861-6.259 9.674-11.646 7.354l-15.077-6.496a8.357 8.357 0 0 0-5.585-.366z"/><path fill="#498a68" d="M355.635 347.492c-4.391 0-8.359-.924-11.533-2.911-7.128-4.461-9.29-13.856-4.829-20.984 3.688-5.893 10.745-8.392 17.112-6.56 3.339-.498 11.589-3.477 17.372-11.014 5.12-6.672 14.677-7.93 21.35-2.81 6.671 5.12 7.929 14.678 2.81 21.35-10.649 13.874-28.537 22.929-42.282 22.929z"/><path fill="#5cb38e" d="M254.474 410.185c-70.608 7.954-151.864 17.107-215.627-14.17-10.911-5.352-6.792-21.711 5.358-21.461 47.816.982 86.034-15.466 106.409-37.433l103.86 73.064z"/><path d="M125.784 356.146c3.328 22.46 9.324 44.578 25.332 61.728 34.861.028 70.278-3.962 103.358-7.688l-103.86-73.064c-6.531 7.04-14.903 13.51-24.83 19.024z" opacity=".1"/><g fill="#498a68"><path d="M224.911 483.005c-9.047 0-17.663-5.271-21.497-14.097-14.595-33.597-6.449-76.351 5.815-92.213 7.913-10.236 22.625-12.115 32.86-4.204 10.056 7.775 12.049 22.113 4.609 32.32-2.951 5.583-7.466 28.966-.314 45.43 5.155 11.865-.286 25.663-12.152 30.818a23.335 23.335 0 0 1-9.321 1.946zm21.391-77.667l-.01.013a.064.064 0 0 0 .01-.013zm.507-.728zM343.181 464.502c-.761 0-1.528-.037-2.3-.112-12.876-1.255-22.297-12.711-21.043-25.587 1.42-14.576-12.485-32.809-18.787-35.995-12.187-2.566-20.309-14.3-18.271-26.714 2.095-12.766 14.145-21.417 26.91-19.321 20.26 3.326 35.379 22.839 40.938 31.073 6.934 10.272 18.213 31.14 15.839 55.499-1.179 12.106-11.373 21.157-23.286 21.157zm-41.094-61.498z"/></g><path d="M361.394 408.557c-3.306-8.745-7.513-15.892-10.765-20.708-5.56-8.235-20.678-27.747-40.938-31.073-12.765-2.096-24.815 6.555-26.91 19.321-2.037 12.413 6.085 24.148 18.271 26.714 5.489 2.775 16.746 16.968 18.618 30.216 17.653-6.047 31.411-14.129 41.724-24.47zM244.794 445.848c-4.79-15.968-.792-35.934 1.904-41.036 7.44-10.207 5.447-24.544-4.609-32.32-10.234-7.912-24.946-6.032-32.86 4.204-9.189 11.884-16.064 38.863-12.797 65.776 10.804 2.45 22.904 3.669 36.374 3.669 3.841-.001 7.843-.099 11.988-.293z" opacity=".1"/><path fill="#5cb38e" d="M359.767 315.153c6.122 54.343 3.17 94.496-95.723 105.637-98.894 11.141-110.705-27.35-116.826-81.693-6.122-54.343 36.497-103.757 95.191-110.368 58.693-6.612 111.237 32.081 117.358 86.424z"/><path fill="#9bdfc1" d="M359.767 315.153c-.049-.433-.109-.862-.163-1.293-22.775-3.187-66.867.107-93.764 36.019-19.6 26.17-19.945 52.067-15.263 72.161 4.3-.309 8.785-.724 13.466-1.251 98.894-11.14 101.846-51.293 95.724-105.636z"/><path d="M222.433 232.779c-48.061 14.253-80.618 58.363-75.216 106.317 5.668 50.319 16.227 87.04 96.268 83.359-49.155-39.804-51.037-133.211-21.052-189.676z" opacity=".05"/><path fill="#5cb38e" d="M331.789 77.242A98.635 98.635 0 0 0 247.02 38.01l-40.627 2.433c-57.759 3.459-101.778 53.086-98.319 110.846l2.88 48.084c3.105 51.839 47.645 91.346 99.483 88.241l215.362-12.897c38.834-2.326 68.429-35.692 66.103-74.525l-1.96-32.725c-2.326-38.834-35.692-68.429-74.525-66.103l-27.899 1.671a64.85 64.85 0 0 1-55.729-25.793z"/><g opacity=".1"><circle cx="169.136" cy="218.83" r="7.211"/><circle cx="220.958" cy="226.738" r="7.211"/><circle cx="193.152" cy="253.048" r="7.211"/></g><g fill="#ffa8cb"><ellipse cx="174.176" cy="119.737" rx="9.324" ry="18.174" transform="rotate(-93.428 174.176 119.739)"/><ellipse cx="295.978" cy="112.451" rx="9.324" ry="18.174" transform="rotate(86.572 295.98 112.45)"/></g><path d="M183.314 44.429c-45.943 13.356-78.222 57.087-75.241 106.86l2.88 48.084c3.105 51.839 47.645 91.346 99.483 88.241l56.956-3.411c-85.838-43.295-107.843-175.118-84.078-239.774z" opacity=".05"/><path fill="#495059" d="M409.799 240.758c-13.052.781-24.265-9.166-25.047-22.216l-.6-10.03c-.45-7.512 5.275-13.966 12.787-14.416l20.06-1.202c7.512-.45 13.966 5.275 14.417 12.787l.6 10.03c.781 13.051-9.165 24.265-22.217 25.047z"/><path fill="#498a68" d="M270.674 383.583c-6.755 0-12.924-4.528-14.718-11.369-1.939-7.396-7.153-10.149-13.767-12.979-1.831-.784-3.562-1.524-5.252-2.582-7.128-4.461-9.29-13.856-4.829-20.984 4.377-6.994 13.504-9.207 20.579-5.074.408.194.911.4 1.482.644 6.939 2.969 25.371 10.856 31.243 33.253 2.133 8.134-2.733 16.457-10.867 18.59a15.26 15.26 0 0 1-3.871.501zm-17.799-52.877z"/><path d="M511.517 344.093a15.627 15.627 0 0 0-9.766-10.824l-15.412-5.656a1.063 1.063 0 0 1-.547-.455l-8.381-14.118a15.628 15.628 0 0 0-12.428-7.621 15.627 15.627 0 0 0-13.311 5.943l-10.142 12.909a1.071 1.071 0 0 1-.602.38l-16.016 3.607a15.63 15.63 0 0 0-11.088 9.464 15.63 15.63 0 0 0 1.538 14.497l9.144 13.636c.135.202.197.447.175.689l-1.519 16.347a15.626 15.626 0 0 0 5.575 13.47 15.626 15.626 0 0 0 14.262 3.017l15.793-4.482c.233-.067.486-.051.711.046l15.077 6.496a15.635 15.635 0 0 0 14.534-1.139 15.628 15.628 0 0 0 7.276-12.632l.618-16.406c.009-.243.102-.477.263-.661l10.838-12.333a15.629 15.629 0 0 0 3.408-14.174zm-14.355 4.555l-10.837 12.332a15.68 15.68 0 0 0-3.879 9.733l-.618 16.405c-.015.371-.181.66-.495.858a1.006 1.006 0 0 1-.987.078l-15.078-6.497a15.677 15.677 0 0 0-10.454-.682l-.001.001-15.793 4.483a1.012 1.012 0 0 1-.969-.205 1.01 1.01 0 0 1-.379-.915l1.518-16.348a15.687 15.687 0 0 0-2.582-10.154l-9.143-13.635a1.008 1.008 0 0 1-.104-.985c.137-.345.391-.562.753-.643l16.015-3.607a15.683 15.683 0 0 0 8.86-5.594l10.142-12.91c.229-.291.532-.43.905-.403.37.024.655.198.844.518l8.38 14.117a15.677 15.677 0 0 0 8.058 6.698l15.412 5.656c.349.128.572.376.664.735.091.36.013.685-.232.964zm-97.62-51.216c-9.848-7.557-24.009-5.693-31.565 4.155a21.728 21.728 0 0 1-2.595 2.816 98.93 98.93 0 0 0-5.911-18.416l66.764-3.999c42.782-2.562 75.504-39.452 72.942-82.234l-1.96-32.725c-1.212-20.238-10.067-38.818-24.945-52.509l3.071-10.416c.154-.522.486-.979.935-1.287l15.672-10.74a16.941 16.941 0 0 0 7.367-13.981 16.945 16.945 0 0 0-7.367-13.981l-15.672-10.739a2.39 2.39 0 0 1-.936-1.287l-5.373-18.224a16.939 16.939 0 0 0-11.019-11.326 16.943 16.943 0 0 0-15.573 2.686L428.319 36.81a2.404 2.404 0 0 1-1.515.493l-18.993-.523a16.96 16.96 0 0 0-14.178 6.98 16.939 16.939 0 0 0-2.257 15.641l6.367 17.903a2.377 2.377 0 0 1-.001 1.59l-5.896 16.582-4.764.286c-19.341 1.152-37.832-7.4-49.466-22.893-21.409-28.512-55.433-44.261-91.032-42.13l-40.626 2.433C144.281 36.864 97.106 90.048 100.8 151.725l2.88 48.084c2.021 33.735 20.762 63.373 48.242 80.301-9.759 17.808-13.935 37.465-12.164 57.407-21.935 19.458-57.244 30.533-95.404 29.753-8.986-.189-16.459 5.554-18.579 14.281-2.1 8.643 1.863 17.086 9.862 21.009 36.654 17.98 77.93 22.651 115.378 22.651 13.056-.001 25.639-.57 37.405-1.341-.504 13.279.86 30.794 8.31 47.944a30.711 30.711 0 0 0 28.18 18.48 30.5 30.5 0 0 0 12.224-2.549c7.524-3.268 13.325-9.271 16.335-16.903 3.009-7.632 2.866-15.978-.402-23.502-2.079-4.786-3.178-11.014-3.218-17.948 4.815-.325 9.809-.774 15.009-1.36 16.099-1.814 30.083-4.427 42.133-7.899 3.399 5.583 6.141 12.361 5.594 17.966-1.643 16.854 10.733 31.903 27.59 33.545a31.2 31.2 0 0 0 3.004.146c12.614 0 23.794-7.57 28.485-19.287a7.287 7.287 0 0 0-13.529-5.417c-2.622 6.549-9.47 10.74-16.549 10.053a16.033 16.033 0 0 1-10.899-5.811 16.038 16.038 0 0 1-3.598-11.816c.87-8.931-2.511-17.706-6.038-24.167 11.331-4.555 20.447-10.159 27.567-16.895 3.162 5.602 6.443 12.718 8.572 20.856a7.29 7.29 0 0 0 7.045 5.445 7.288 7.288 0 0 0 7.055-9.133c-3.154-12.058-8.423-22.128-12.837-29.11 6.375-10.179 9.238-21.661 10.165-33.682 13.235-3.766 26.534-12.694 35.077-23.826 7.558-9.85 5.695-24.011-4.153-31.568zm5.883-245.107a2.394 2.394 0 0 1 1.987-.978l18.993.523c3.877.106 7.72-1.14 10.802-3.509l15.059-11.587c.864-.665 1.737-.521 2.182-.377.444.145 1.236.543 1.544 1.588l5.372 18.223a16.996 16.996 0 0 0 6.675 9.189l15.672 10.741a2.323 2.323 0 0 1 1.033 1.96c0 .468-.134 1.344-1.033 1.96l-15.673 10.741a16.998 16.998 0 0 0-6.674 9.188l-1.524 5.173c-13.386-8.131-28.894-12.03-44.857-11.069l-7.331.439 3.824-10.753a16.987 16.987 0 0 0 0-11.357l-6.366-17.903a2.317 2.317 0 0 1 .315-2.192zM42.055 389.474c-2.493-1.223-2.397-3.335-2.118-4.486.235-.968 1.105-3.227 4.118-3.15 37.667.776 73.125-9.297 97.803-27.337 3.183 20.966 8.918 41.225 24.008 55.323.202.188.42.361.624.547-39.584 1.277-85.229-1.665-124.435-20.897zm197.857 76.02a16.03 16.03 0 0 1-8.584 8.883 16.005 16.005 0 0 1-6.417 1.342 16.143 16.143 0 0 1-14.814-9.713c-4.852-11.168-7.323-24.636-7.178-38.626 8.84 1.746 18.764 2.623 29.901 2.623.81 0 1.636-.012 2.458-.02.08 7.194 1.113 15.548 4.421 23.163a16.018 16.018 0 0 1 .213 12.348zm-15.473-186.018a7.288 7.288 0 0 0 .87 14.548l118.514-7.098a84.761 84.761 0 0 1 8.703 29.044c3.182 28.249 3.075 48.828-7.275 64.12a45.01 45.01 0 0 1-1.297 1.81 4.643 4.643 0 0 0-.125.161c-7.26 9.574-18.814 16.956-35.307 22.41a7.226 7.226 0 0 0-1.465.471c-12.001 3.818-26.524 6.659-43.83 8.609-7.223.813-14.002 1.363-20.371 1.658a7.627 7.627 0 0 0-.679.029c-17.473.761-31.787-.455-43.301-3.722a7.284 7.284 0 0 0-1.463-.44 71.99 71.99 0 0 1-3.727-1.247 7.3 7.3 0 0 0-.992-.374c-6.7-2.581-12.299-5.997-16.879-10.277-10.003-9.346-17.065-22.792-21.357-60.893-2.008-17.829 1.588-35.478 10.387-51.427a100.092 100.092 0 0 0 25.53 7.197 7.288 7.288 0 0 0 2.063-14.426c-40.547-5.798-71.757-39.732-74.21-80.689l-2.88-48.084c-1.556-25.992 7.102-51.035 24.38-70.515 17.279-19.479 41.109-31.065 67.101-32.622l40.626-2.433c30.699-1.837 60.043 11.744 78.507 36.333 14.58 19.416 37.757 30.141 61.991 28.69l27.899-1.671c34.754-2.078 64.734 24.504 66.816 59.265l1.961 32.725c2.081 34.761-24.505 64.734-59.265 66.816l-200.925 12.032zm167.697 40.65c-5.719 7.452-14.416 13.781-23.258 17.246-.191-5.588-.641-11.22-1.206-16.825 3.716-2.028 8.122-5.207 11.866-10.088 2.665-3.473 7.659-4.13 11.132-1.465s4.13 7.659 1.466 11.132zM26.833 293.005c.492.233.892.632 1.125 1.125l8.157 17.16a16.943 16.943 0 0 0 15.309 9.672c4.617 0 9.078-1.889 12.307-5.299l13.059-13.799a2.39 2.39 0 0 1 1.419-.724l18.84-2.455a16.943 16.943 0 0 0 12.911-9.111 16.938 16.938 0 0 0-.218-15.801l-9.088-16.686a2.384 2.384 0 0 1-.249-1.572l3.487-18.677a16.943 16.943 0 0 0-4.676-15.095 16.938 16.938 0 0 0-15.095-4.676l-18.678 3.487a2.38 2.38 0 0 1-1.572-.249l-16.685-9.088c-4.912-2.675-10.818-2.756-15.801-.218s-8.389 7.365-9.112 12.911l-2.455 18.84a2.38 2.38 0 0 1-.723 1.418L5.298 257.232a16.94 16.94 0 0 0-5.089 14.96 16.939 16.939 0 0 0 9.464 12.655l17.16 8.158zm-10.904-21.318c-.983-.467-1.253-1.313-1.326-1.774-.073-.461-.078-1.348.713-2.097l13.8-13.06a17.008 17.008 0 0 0 5.156-10.119l2.455-18.84c.141-1.08.861-1.597 1.277-1.809a2.314 2.314 0 0 1 2.214.03l16.685 9.088a16.992 16.992 0 0 0 11.217 1.777l18.677-3.487a2.318 2.318 0 0 1 2.115.656c.33.33.855 1.045.656 2.115l-3.487 18.677a16.992 16.992 0 0 0 1.777 11.217l9.088 16.685c.521.956.243 1.798.03 2.214a2.318 2.318 0 0 1-1.809 1.277l-18.841 2.455a17.006 17.006 0 0 0-10.119 5.156l-13.059 13.799c-.749.792-1.635.786-2.098.713a2.323 2.323 0 0 1-1.774-1.326l-8.157-17.16a16.999 16.999 0 0 0-8.031-8.031l-17.159-8.156zm365.268-124.192a7.21 7.21 0 1 0-.862-14.396 7.21 7.21 0 0 0 .862 14.396zm50.348 90.175c5.488-6.187 8.238-14.14 7.744-22.396l-.601-10.03a20.772 20.772 0 0 0-6.998-14.394 20.789 20.789 0 0 0-15.127-5.231l-20.06 1.202c-5.576.334-10.688 2.819-14.394 6.998s-5.564 9.551-5.231 15.127l.6 10.03c.495 8.255 4.174 15.825 10.362 21.312 5.713 5.067 12.931 7.8 20.503 7.8.629 0 1.259-.019 1.893-.056 8.253-.496 15.822-4.175 21.309-10.362zM420.643 228a16.277 16.277 0 0 1-11.281 5.483 16.258 16.258 0 0 1-11.854-4.098 16.282 16.282 0 0 1-5.484-11.28l-.6-10.03a6.348 6.348 0 0 1 5.949-6.708l20.06-1.201a6.348 6.348 0 0 1 6.707 5.949l.601 10.03A16.273 16.273 0 0 1 420.643 228zm6.423-83.252a7.21 7.21 0 0 0 6.767-7.629 7.21 7.21 0 1 0-6.767 7.629zM286.627 78.781c-3.8-3.37-8.682-5.064-13.753-4.756a18.895 18.895 0 0 0-13.088 6.363 18.893 18.893 0 0 0-4.756 13.753 7.286 7.286 0 0 0 7.709 6.838 7.288 7.288 0 0 0 6.839-7.709 4.414 4.414 0 0 1 1.11-3.212 4.399 4.399 0 0 1 3.056-1.485 4.403 4.403 0 0 1 3.212 1.11 4.404 4.404 0 0 1 1.486 3.056 7.288 7.288 0 0 0 14.548-.87 18.885 18.885 0 0 0-6.363-13.088zm-80.345 4.812a18.902 18.902 0 0 0-13.754-4.755c-10.465.628-18.469 9.651-17.843 20.116a7.286 7.286 0 1 0 14.548-.872 4.444 4.444 0 0 1 4.167-4.698 4.387 4.387 0 0 1 3.212 1.11 4.403 4.403 0 0 1 1.485 3.056 7.287 7.287 0 0 0 14.548-.871 18.9 18.9 0 0 0-6.363-13.086zm26.79 279.237c2.166 1.355 4.236 2.241 6.251 3.104 6.299 2.696 8.568 4.249 9.585 8.127 2.593 9.896 11.544 16.808 21.766 16.808 1.924 0 3.848-.249 5.719-.74 12.007-3.149 19.215-15.479 16.067-27.486-6.777-25.843-28.338-35.071-35.429-38.106l-.431-.183c-.207-.087-.4-.167-.574-.245a22.435 22.435 0 0 0-6.814-2.486 7.286 7.286 0 0 0-8.517 5.802 7.288 7.288 0 0 0 5.802 8.517 7.87 7.87 0 0 1 2.513.944l.057.033.022.014.159.098a7.34 7.34 0 0 0 1.845.819l.209.089c6.611 2.829 22.092 9.455 27.06 28.401 1.11 4.234-1.432 8.584-5.668 9.694a7.954 7.954 0 0 1-2.022.263 7.938 7.938 0 0 1-7.669-5.93c-2.997-11.432-11.995-15.281-17.958-17.834-1.629-.698-3.035-1.299-4.243-2.055a7.869 7.869 0 0 1-2.501-2.484 7.288 7.288 0 0 0-12.325 7.777 22.353 22.353 0 0 0 7.096 7.059z"/></svg>